<?xml version="1.0"?>
<svg xmlns="http://www.w3.org/2000/svg" viewBox="0 0 64 64" width="512px" height="512px" class=""><g><g id="Bank"><path d="M61,56H60V53a1,1,0,0,0-1-1H58V49a1,1,0,0,0-1-1H56V46a1,1,0,0,0-1-1H54V32h1a1,1,0,0,0,1-1V29a1,1,0,0,0,1-1V25h1a1,1,0,0,0,1-1V22.755a2.713,2.713,0,0,0,3-2.722,2.75,2.75,0,0,0-1.422-2.408l-28.1-15.5a.994.994,0,0,0-.966,0L3.422,17.625A2.755,2.755,0,0,0,4.749,22.79c.084,0,.167-.025.251-.032V24a1,1,0,0,0,1,1H7v3a1,1,0,0,0,1,1v2a1,1,0,0,0,1,1h1V45H9a1,1,0,0,0-1,1v2H7a1,1,0,0,0-1,1v3H5a1,1,0,0,0-1,1v3H3a1,1,0,0,0-1,1v4a1,1,0,0,0,1,1H61a1,1,0,0,0,1-1V57A1,1,0,0,0,61,56ZM34.22,52A2.981,2.981,0,0,0,35,50v-.681a7.037,7.037,0,0,0,3.593-3.964,7.445,7.445,0,0,0-.815-6.485A6.483,6.483,0,0,0,32.034,36a1.961,1.961,0,0,1-1.648-.824,2,2,0,0,1-.27-1.869,1.922,1.922,0,0,1,1.189-1.19,2,2,0,0,1,2.573,1.2,2.5,2.5,0,1,0,4.7-1.7A6.934,6.934,0,0,0,35,27.679V27a2.981,2.981,0,0,0-.78-2H43v3a1,1,0,0,0,1,1v2a1,1,0,0,0,1,1h1V45H45a1,1,0,0,0-1,1v2H43a1,1,0,0,0-1,1v3ZM21,48H20V46a1,1,0,0,0-1-1H18V32h1a1,1,0,0,0,1-1V29a1,1,0,0,0,1-1V25h8.78A2.981,2.981,0,0,0,29,27v.681a7.04,7.04,0,0,0-3.593,3.964,7.445,7.445,0,0,0,.815,6.485A6.463,6.463,0,0,0,31.966,41a1.925,1.925,0,0,1,1.648.824,2,2,0,0,1,.27,1.869,1.927,1.927,0,0,1-1.217,1.2,2.01,2.01,0,0,1-2.545-1.207,2.5,2.5,0,1,0-4.7,1.7A6.934,6.934,0,0,0,29,49.321V50a2.981,2.981,0,0,0,.78,2H22V49A1,1,0,0,0,21,48Zm7.772-11.642A4.046,4.046,0,0,0,32.068,38a4.462,4.462,0,0,1,4.005,1.915,5.493,5.493,0,0,1,.637,4.768,5.008,5.008,0,0,1-3.039,3.023A1,1,0,0,0,33,48.65V50a1,1,0,0,1-2,0V48.65a1,1,0,0,0-.672-.944,5.014,5.014,0,0,1-3.031-3,.538.538,0,0,1,.062-.494.484.484,0,0,1,.4-.209.534.534,0,0,1,.483.377A4.025,4.025,0,0,0,33.281,46.8a3.9,3.9,0,0,0,2.5-2.468,4.006,4.006,0,0,0-.553-3.685A4.139,4.139,0,0,0,31.932,39a4.475,4.475,0,0,1-4-1.915,5.491,5.491,0,0,1-.637-4.767,5.007,5.007,0,0,1,3.039-3.024A1,1,0,0,0,31,28.35V27a1,1,0,0,1,2,0v1.35a1,1,0,0,0,.672.944,5.014,5.014,0,0,1,3.031,3,.538.538,0,0,1-.062.494.484.484,0,0,1-.4.209.532.532,0,0,1-.482-.376,4.021,4.021,0,0,0-5.087-2.4,3.9,3.9,0,0,0-2.448,2.451A4.008,4.008,0,0,0,28.772,36.358ZM44,50H56v2H44Zm2-2V47h8v1Zm6-3H48V32h4Zm2-15H46V29h8Zm1-3H45V25H55ZM7,23V21.935L8.694,21H55.305l1.7.935V23Zm5.319-4L32,8.142,51.68,19Zm-7.95,1.682A.741.741,0,0,1,4,20.033a.749.749,0,0,1,.388-.657L32,4.142,59.612,19.377a.748.748,0,0,1,.388.659.749.749,0,0,1-1.112.656h0L32.483,6.125a1,1,0,0,0-.966,0L5.112,20.692A.74.74,0,0,1,4.369,20.682ZM19,25v2H9V25Zm-1,4v1H10V29Zm-6,3h4V45H12ZM10,47h8v1H10ZM8,50H20v2H8ZM6,54H58v2H6Zm54,6H4V58H60Z" data-original="#000000" class="active-path" data-old_color="#000000" fill="#FFFFFF"/><path d="M14,33a1,1,0,0,0-1,1v9a1,1,0,0,0,2,0V34A1,1,0,0,0,14,33Z" data-original="#000000" class="active-path" data-old_color="#000000" fill="#FFFFFF"/><path d="M50,44a1,1,0,0,0,1-1V34a1,1,0,0,0-2,0v9A1,1,0,0,0,50,44Z" data-original="#000000" class="active-path" data-old_color="#000000" fill="#FFFFFF"/><path d="M28,14a4,4,0,1,0,4-4A4,4,0,0,0,28,14Zm6,0a2,2,0,1,1-2-2A2,2,0,0,1,34,14Z" data-original="#000000" class="active-path" data-old_color="#000000" fill="#FFFFFF"/></g></g> </svg>
